<svg width="21" height="24" viewBox="0 0 21 24" fill="none" xmlns="http://www.w3.org/2000/svg">
<g clip-path="url(#clip0_705_9)">
<path d="M10.5047 6.6094C7.52341 6.6094 5.11873 9.01409 5.11873 11.9953C5.11873 14.9766 7.52341 17.3813 10.5047 17.3813C13.4859 17.3813 15.8906 14.9766 15.8906 11.9953C15.8906 9.01409 13.4859 6.6094 10.5047 6.6094ZM10.5047 15.4969C8.5781 15.4969 7.0031 13.9266 7.0031 11.9953C7.0031 10.0641 8.57341 8.49377 10.5047 8.49377C12.4359 8.49377 14.0062 10.0641 14.0062 11.9953C14.0062 13.9266 12.4312 15.4969 10.5047 15.4969ZM17.3672 6.38909C17.3672 7.08752 16.8047 7.64534 16.1109 7.64534C15.4125 7.64534 14.8547 7.08284 14.8547 6.38909C14.8547 5.69534 15.4172 5.13284 16.1109 5.13284C16.8047 5.13284 17.3672 5.69534 17.3672 6.38909ZM20.9344 7.66409C20.8547 5.98127 20.4703 4.49065 19.2375 3.26252C18.0094 2.0344 16.5187 1.65002 14.8359 1.56565C13.1015 1.46721 7.9031 1.46721 6.16873 1.56565C4.4906 1.64534 2.99998 2.02971 1.76716 3.25784C0.534351 4.48596 0.154663 5.97659 0.0702881 7.6594C-0.0281494 9.39377 -0.0281494 14.5922 0.0702881 16.3266C0.149976 18.0094 0.534351 19.5 1.76716 20.7281C2.99998 21.9563 4.48591 22.3406 6.16873 22.425C7.9031 22.5235 13.1015 22.5235 14.8359 22.425C16.5187 22.3453 18.0094 21.961 19.2375 20.7281C20.4656 19.5 20.85 18.0094 20.9344 16.3266C21.0328 14.5922 21.0328 9.39846 20.9344 7.66409ZM18.6937 18.1875C18.3281 19.1063 17.6203 19.8141 16.6969 20.1844C15.314 20.7328 12.0328 20.6063 10.5047 20.6063C8.97654 20.6063 5.6906 20.7281 4.31248 20.1844C3.39373 19.8188 2.68591 19.111 2.3156 18.1875C1.76716 16.8047 1.89373 13.5235 1.89373 11.9953C1.89373 10.4672 1.77185 7.18127 2.3156 5.80315C2.68123 4.8844 3.38904 4.17659 4.31248 3.80627C5.69529 3.25784 8.97654 3.3844 10.5047 3.3844C12.0328 3.3844 15.3187 3.26252 16.6969 3.80627C17.6156 4.1719 18.3234 4.87971 18.6937 5.80315C19.2422 7.18596 19.1156 10.4672 19.1156 11.9953C19.1156 13.5235 19.2422 16.8094 18.6937 18.1875Z" fill="#595C5E"/>
</g>
<defs>
<clipPath id="clip0_705_9">
<rect width="21" height="24" fill="white"/>
</clipPath>
</defs>
</svg>
